%TF.GenerationSoftware,KiCad,Pcbnew,4.0.1-stable*%
%TF.CreationDate,2016-01-20T19:55:13+01:00*%
%TF.ProjectId,pwm_board,70776D5F626F6172642E6B696361645F,rev?*%
%TF.FileFunction,Copper,L2,Bot,Signal*%
%FSLAX46Y46*%
G04 Gerber Fmt 4.6, Leading zero omitted, Abs format (unit mm)*
G04 Created by KiCad (PCBNEW 4.0.1-stable) date Wed 20 Jan 2016 07:55:13 PM CET*
%MOMM*%
G01*
G04 APERTURE LIST*
%ADD10C,0.100000*%
%ADD11O,1.998980X1.998980*%
%ADD12R,1.998980X1.998980*%
%ADD13C,4.800600*%
%ADD14R,4.800600X4.800600*%
%ADD15C,1.524000*%
%ADD16C,2.700020*%
%ADD17C,1.998980*%
%ADD18C,4.064000*%
%ADD19O,2.499360X1.501140*%
%ADD20R,2.032000X1.727200*%
%ADD21O,2.032000X1.727200*%
%ADD22C,0.500000*%
%ADD23C,1.000000*%
%ADD24C,0.254000*%
G04 APERTURE END LIST*
D10*
D11*
X158115000Y-115570000D03*
D12*
X153035000Y-115570000D03*
D13*
X156845000Y-92075000D03*
D14*
X156845000Y-98171000D03*
D13*
X151765000Y-94361000D03*
D15*
X128270000Y-102235000D03*
X128270000Y-104775000D03*
X126271020Y-104775000D03*
X126271020Y-102235000D03*
D16*
X123571000Y-97505520D03*
X123571000Y-109504480D03*
D17*
X128905000Y-91485591D03*
X133985000Y-100284409D03*
X135890000Y-91485591D03*
X140970000Y-100284409D03*
X142875000Y-91485591D03*
X147955000Y-100284409D03*
D18*
X123825000Y-92075000D03*
X123825000Y-114935000D03*
X164465000Y-114935000D03*
X164465000Y-92075000D03*
D19*
X133985000Y-105410000D03*
X133985000Y-102870000D03*
X133985000Y-107950000D03*
X140970000Y-105410000D03*
X140970000Y-102870000D03*
X140970000Y-107950000D03*
X147955000Y-105410000D03*
X147955000Y-102870000D03*
X147955000Y-107950000D03*
D20*
X165100000Y-107315000D03*
D21*
X165100000Y-104775000D03*
X165100000Y-102235000D03*
X165100000Y-99695000D03*
D22*
X156845000Y-92075000D02*
X154051000Y-92075000D01*
X154051000Y-92075000D02*
X151765000Y-94361000D01*
D23*
X133985000Y-105410000D02*
X134580897Y-106044656D01*
D24*
G36*
X122316239Y-89812709D02*
X121565345Y-90562293D01*
X121158464Y-91542173D01*
X121157538Y-92603172D01*
X121562709Y-93583761D01*
X122312293Y-94334655D01*
X123292173Y-94741536D01*
X124353172Y-94742462D01*
X124899410Y-94516761D01*
X148674157Y-94516761D01*
X148849826Y-95399910D01*
X149165518Y-95725873D01*
X150530392Y-94361000D01*
X149165518Y-92996127D01*
X148849826Y-93322090D01*
X148674157Y-94516761D01*
X124899410Y-94516761D01*
X125333761Y-94337291D01*
X126084655Y-93587707D01*
X126333261Y-92988996D01*
X129019538Y-92988996D01*
X129235826Y-93118936D01*
X129546456Y-92988996D01*
X136004538Y-92988996D01*
X136220826Y-93118936D01*
X136531456Y-92988996D01*
X142989538Y-92988996D01*
X143205826Y-93118936D01*
X143805697Y-92868004D01*
X144124105Y-92588767D01*
X144119718Y-92336486D01*
X143228373Y-92097651D01*
X142989538Y-92988996D01*
X136531456Y-92988996D01*
X136820697Y-92868004D01*
X137139105Y-92588767D01*
X137134718Y-92336486D01*
X136243373Y-92097651D01*
X136004538Y-92988996D01*
X129546456Y-92988996D01*
X129835697Y-92868004D01*
X130154105Y-92588767D01*
X130149718Y-92336486D01*
X129258373Y-92097651D01*
X129019538Y-92988996D01*
X126333261Y-92988996D01*
X126491536Y-92607827D01*
X126492226Y-91816417D01*
X127271655Y-91816417D01*
X127522587Y-92416288D01*
X127801824Y-92734696D01*
X128054105Y-92730309D01*
X128292940Y-91838964D01*
X128208794Y-91816417D01*
X134256655Y-91816417D01*
X134507587Y-92416288D01*
X134786824Y-92734696D01*
X135039105Y-92730309D01*
X135277940Y-91838964D01*
X135193794Y-91816417D01*
X141241655Y-91816417D01*
X141492587Y-92416288D01*
X141771824Y-92734696D01*
X142024105Y-92730309D01*
X142262940Y-91838964D01*
X141371595Y-91600129D01*
X141241655Y-91816417D01*
X135193794Y-91816417D01*
X134386595Y-91600129D01*
X134256655Y-91816417D01*
X128208794Y-91816417D01*
X127401595Y-91600129D01*
X127271655Y-91816417D01*
X126492226Y-91816417D01*
X126492462Y-91546828D01*
X126321149Y-91132218D01*
X129517060Y-91132218D01*
X130408405Y-91371053D01*
X130538345Y-91154765D01*
X130528914Y-91132218D01*
X136502060Y-91132218D01*
X137393405Y-91371053D01*
X137523345Y-91154765D01*
X137513914Y-91132218D01*
X143487060Y-91132218D01*
X144378405Y-91371053D01*
X144508345Y-91154765D01*
X144257413Y-90554894D01*
X143978176Y-90236486D01*
X143725895Y-90240873D01*
X143487060Y-91132218D01*
X137513914Y-91132218D01*
X137272413Y-90554894D01*
X137121153Y-90382415D01*
X141625895Y-90382415D01*
X141630282Y-90634696D01*
X142521627Y-90873531D01*
X142760462Y-89982186D01*
X142544174Y-89852246D01*
X141944303Y-90103178D01*
X141625895Y-90382415D01*
X137121153Y-90382415D01*
X136993176Y-90236486D01*
X136740895Y-90240873D01*
X136502060Y-91132218D01*
X130528914Y-91132218D01*
X130287413Y-90554894D01*
X130136153Y-90382415D01*
X134640895Y-90382415D01*
X134645282Y-90634696D01*
X135536627Y-90873531D01*
X135775462Y-89982186D01*
X135559174Y-89852246D01*
X134959303Y-90103178D01*
X134640895Y-90382415D01*
X130136153Y-90382415D01*
X130008176Y-90236486D01*
X129755895Y-90240873D01*
X129517060Y-91132218D01*
X126321149Y-91132218D01*
X126087291Y-90566239D01*
X125903788Y-90382415D01*
X127655895Y-90382415D01*
X127660282Y-90634696D01*
X128551627Y-90873531D01*
X128790462Y-89982186D01*
X128574174Y-89852246D01*
X127974303Y-90103178D01*
X127655895Y-90382415D01*
X125903788Y-90382415D01*
X125337707Y-89815345D01*
X124843180Y-89610000D01*
X155614609Y-89610000D01*
X156718000Y-90713392D01*
X156718000Y-93210893D01*
X155596250Y-92089143D01*
X155610392Y-92075000D01*
X154245518Y-90710127D01*
X153929826Y-91036090D01*
X153786685Y-92009545D01*
X153334264Y-91557124D01*
X153129872Y-91761517D01*
X152803910Y-91445826D01*
X151609239Y-91270157D01*
X150726090Y-91445826D01*
X150400127Y-91761518D01*
X151765000Y-93126392D01*
X151779142Y-93112249D01*
X153013751Y-94346858D01*
X152999608Y-94361000D01*
X153013751Y-94375143D01*
X151779142Y-95609751D01*
X151765000Y-95595608D01*
X150400127Y-96960482D01*
X150726090Y-97276174D01*
X151920761Y-97451843D01*
X152803910Y-97276174D01*
X153129872Y-96960483D01*
X153295621Y-97126233D01*
X153295621Y-100571300D01*
X153374206Y-100988941D01*
X153621031Y-101372519D01*
X153997644Y-101629848D01*
X154444700Y-101720379D01*
X154813000Y-101720379D01*
X154813000Y-117400000D01*
X124843168Y-117400000D01*
X125333761Y-117197291D01*
X126084655Y-116447707D01*
X126175679Y-116228495D01*
X151400510Y-116228495D01*
X151400510Y-116695800D01*
X151497183Y-116929189D01*
X151675812Y-117107817D01*
X151909201Y-117204490D01*
X152376505Y-117204490D01*
X152535255Y-117045740D01*
X152535255Y-116069745D01*
X153534745Y-116069745D01*
X153534745Y-117045740D01*
X153693495Y-117204490D01*
X154160799Y-117204490D01*
X154394188Y-117107817D01*
X154572817Y-116929189D01*
X154669490Y-116695800D01*
X154669490Y-116228495D01*
X154510740Y-116069745D01*
X153534745Y-116069745D01*
X152535255Y-116069745D01*
X151559260Y-116069745D01*
X151400510Y-116228495D01*
X126175679Y-116228495D01*
X126491536Y-115467827D01*
X126492429Y-114444200D01*
X151400510Y-114444200D01*
X151400510Y-114911505D01*
X151559260Y-115070255D01*
X152535255Y-115070255D01*
X152535255Y-114094260D01*
X153534745Y-114094260D01*
X153534745Y-115070255D01*
X154510740Y-115070255D01*
X154669490Y-114911505D01*
X154669490Y-114444200D01*
X154572817Y-114210811D01*
X154394188Y-114032183D01*
X154160799Y-113935510D01*
X153693495Y-113935510D01*
X153534745Y-114094260D01*
X152535255Y-114094260D01*
X152376505Y-113935510D01*
X151909201Y-113935510D01*
X151675812Y-114032183D01*
X151497183Y-114210811D01*
X151400510Y-114444200D01*
X126492429Y-114444200D01*
X126492462Y-114406828D01*
X126087291Y-113426239D01*
X125337707Y-112675345D01*
X124357827Y-112268464D01*
X123296828Y-112267538D01*
X122316239Y-112672709D01*
X121565345Y-113422293D01*
X121158464Y-114402173D01*
X121157538Y-115463172D01*
X121562709Y-116443761D01*
X122312293Y-117194655D01*
X122806820Y-117400000D01*
X121989931Y-117400000D01*
X121225011Y-117247848D01*
X120635830Y-116854170D01*
X120242152Y-116264989D01*
X120090000Y-115500069D01*
X120090000Y-111211242D01*
X122818839Y-111211242D01*
X122995585Y-111444857D01*
X123781936Y-111517357D01*
X124146415Y-111444857D01*
X124323161Y-111211242D01*
X123571000Y-110459081D01*
X122818839Y-111211242D01*
X120090000Y-111211242D01*
X120090000Y-109715416D01*
X121558123Y-109715416D01*
X121630623Y-110079895D01*
X121864238Y-110256641D01*
X122616399Y-109504480D01*
X124525601Y-109504480D01*
X125277762Y-110256641D01*
X125511377Y-110079895D01*
X125583877Y-109293544D01*
X125511377Y-108929065D01*
X125277762Y-108752319D01*
X124525601Y-109504480D01*
X122616399Y-109504480D01*
X121864238Y-108752319D01*
X121630623Y-108929065D01*
X121558123Y-109715416D01*
X120090000Y-109715416D01*
X120090000Y-107797718D01*
X122818839Y-107797718D01*
X123571000Y-108549879D01*
X123591565Y-108529314D01*
X132227240Y-108529314D01*
X132314205Y-108645869D01*
X132669692Y-109041283D01*
X133149437Y-109270560D01*
X133360160Y-109148185D01*
X133360160Y-108325285D01*
X134609840Y-108325285D01*
X134609840Y-109148185D01*
X134820563Y-109270560D01*
X135300308Y-109041283D01*
X135655795Y-108645869D01*
X135742760Y-108529314D01*
X139212240Y-108529314D01*
X139299205Y-108645869D01*
X139654692Y-109041283D01*
X140134437Y-109270560D01*
X140345160Y-109148185D01*
X140345160Y-108325285D01*
X141594840Y-108325285D01*
X141594840Y-109148185D01*
X141805563Y-109270560D01*
X142285308Y-109041283D01*
X142640795Y-108645869D01*
X142727760Y-108529314D01*
X146197240Y-108529314D01*
X146284205Y-108645869D01*
X146639692Y-109041283D01*
X147119437Y-109270560D01*
X147330160Y-109148185D01*
X147330160Y-108325285D01*
X148579840Y-108325285D01*
X148579840Y-109148185D01*
X148790563Y-109270560D01*
X149270308Y-109041283D01*
X149625795Y-108645869D01*
X149712760Y-108529314D01*
X149622120Y-108325285D01*
X148579840Y-108325285D01*
X147330160Y-108325285D01*
X146287880Y-108325285D01*
X146197240Y-108529314D01*
X142727760Y-108529314D01*
X142637120Y-108325285D01*
X141594840Y-108325285D01*
X140345160Y-108325285D01*
X139302880Y-108325285D01*
X139212240Y-108529314D01*
X135742760Y-108529314D01*
X135652120Y-108325285D01*
X134609840Y-108325285D01*
X133360160Y-108325285D01*
X132317880Y-108325285D01*
X132227240Y-108529314D01*
X123591565Y-108529314D01*
X124323161Y-107797718D01*
X124146415Y-107564103D01*
X123360064Y-107491603D01*
X122995585Y-107564103D01*
X122818839Y-107797718D01*
X120090000Y-107797718D01*
X120090000Y-105897821D01*
X125687014Y-105897821D01*
X125772539Y-106109295D01*
X126321097Y-106198489D01*
X126769501Y-106109295D01*
X126855026Y-105897821D01*
X126271020Y-105313815D01*
X125687014Y-105897821D01*
X120090000Y-105897821D01*
X120090000Y-104825077D01*
X124847531Y-104825077D01*
X124936725Y-105273481D01*
X125148199Y-105359006D01*
X125732205Y-104775000D01*
X125148199Y-104190994D01*
X124936725Y-104276519D01*
X124847531Y-104825077D01*
X120090000Y-104825077D01*
X120090000Y-102511661D01*
X124873778Y-102511661D01*
X125086010Y-103025303D01*
X125478650Y-103418629D01*
X125737926Y-103526290D01*
X125687014Y-103652179D01*
X126271020Y-104236185D01*
X126855026Y-103652179D01*
X126804112Y-103526287D01*
X127061323Y-103420010D01*
X127270530Y-103211168D01*
X127477630Y-103418629D01*
X127685512Y-103504949D01*
X127479697Y-103589990D01*
X127086371Y-103982630D01*
X126873243Y-104495900D01*
X126873055Y-104711780D01*
X126809835Y-104775000D01*
X126872944Y-104838109D01*
X126872758Y-105051661D01*
X127084990Y-105565303D01*
X127477630Y-105958629D01*
X127990900Y-106171757D01*
X128546661Y-106172242D01*
X129060303Y-105960010D01*
X129453629Y-105567370D01*
X129518974Y-105410000D01*
X131561758Y-105410000D01*
X131704680Y-106128515D01*
X132111686Y-106737642D01*
X132528286Y-107016005D01*
X132314205Y-107254131D01*
X132227240Y-107370686D01*
X132317880Y-107574715D01*
X133360160Y-107574715D01*
X133360160Y-107271822D01*
X133439328Y-107287570D01*
X133575612Y-107287570D01*
X133911258Y-107527462D01*
X134529676Y-107670850D01*
X135107502Y-107574715D01*
X135652120Y-107574715D01*
X135742760Y-107370686D01*
X135656210Y-107254687D01*
X135694571Y-107230767D01*
X136063703Y-106714295D01*
X136164559Y-106279315D01*
X136265320Y-106128515D01*
X136408242Y-105410000D01*
X138546758Y-105410000D01*
X138689680Y-106128515D01*
X139096686Y-106737642D01*
X139513286Y-107016005D01*
X139299205Y-107254131D01*
X139212240Y-107370686D01*
X139302880Y-107574715D01*
X140345160Y-107574715D01*
X140345160Y-107271822D01*
X140424328Y-107287570D01*
X141515672Y-107287570D01*
X141594840Y-107271822D01*
X141594840Y-107574715D01*
X142637120Y-107574715D01*
X142727760Y-107370686D01*
X142640795Y-107254131D01*
X142426714Y-107016005D01*
X142843314Y-106737642D01*
X143250320Y-106128515D01*
X143393242Y-105410000D01*
X145531758Y-105410000D01*
X145674680Y-106128515D01*
X146081686Y-106737642D01*
X146498286Y-107016005D01*
X146284205Y-107254131D01*
X146197240Y-107370686D01*
X146287880Y-107574715D01*
X147330160Y-107574715D01*
X147330160Y-107271822D01*
X147409328Y-107287570D01*
X148500672Y-107287570D01*
X148579840Y-107271822D01*
X148579840Y-107574715D01*
X149622120Y-107574715D01*
X149712760Y-107370686D01*
X149625795Y-107254131D01*
X149411714Y-107016005D01*
X149828314Y-106737642D01*
X150235320Y-106128515D01*
X150378242Y-105410000D01*
X150235320Y-104691485D01*
X149828314Y-104082358D01*
X149473683Y-103845401D01*
X149771133Y-103400235D01*
X149876603Y-102870000D01*
X149771133Y-102339765D01*
X149470779Y-101890254D01*
X149021268Y-101589900D01*
X148970820Y-101579865D01*
X149339846Y-101211482D01*
X149589206Y-100610956D01*
X149589774Y-99960715D01*
X149341462Y-99359754D01*
X148882073Y-98899563D01*
X148281547Y-98650203D01*
X147631306Y-98649635D01*
X147030345Y-98897947D01*
X146570154Y-99357336D01*
X146320794Y-99957862D01*
X146320226Y-100608103D01*
X146568538Y-101209064D01*
X146938774Y-101579946D01*
X146888732Y-101589900D01*
X146439221Y-101890254D01*
X146138867Y-102339765D01*
X146033397Y-102870000D01*
X146138867Y-103400235D01*
X146436317Y-103845401D01*
X146081686Y-104082358D01*
X145674680Y-104691485D01*
X145531758Y-105410000D01*
X143393242Y-105410000D01*
X143250320Y-104691485D01*
X142843314Y-104082358D01*
X142488683Y-103845401D01*
X142786133Y-103400235D01*
X142891603Y-102870000D01*
X142786133Y-102339765D01*
X142485779Y-101890254D01*
X142036268Y-101589900D01*
X141985820Y-101579865D01*
X142354846Y-101211482D01*
X142604206Y-100610956D01*
X142604774Y-99960715D01*
X142356462Y-99359754D01*
X141897073Y-98899563D01*
X141296547Y-98650203D01*
X140646306Y-98649635D01*
X140045345Y-98897947D01*
X139585154Y-99357336D01*
X139335794Y-99957862D01*
X139335226Y-100608103D01*
X139583538Y-101209064D01*
X139953774Y-101579946D01*
X139903732Y-101589900D01*
X139454221Y-101890254D01*
X139153867Y-102339765D01*
X139048397Y-102870000D01*
X139153867Y-103400235D01*
X139451317Y-103845401D01*
X139096686Y-104082358D01*
X138689680Y-104691485D01*
X138546758Y-105410000D01*
X136408242Y-105410000D01*
X136265320Y-104691485D01*
X135858314Y-104082358D01*
X135503683Y-103845401D01*
X135801133Y-103400235D01*
X135906603Y-102870000D01*
X135801133Y-102339765D01*
X135500779Y-101890254D01*
X135051268Y-101589900D01*
X135000820Y-101579865D01*
X135369846Y-101211482D01*
X135619206Y-100610956D01*
X135619774Y-99960715D01*
X135371462Y-99359754D01*
X134912073Y-98899563D01*
X134311547Y-98650203D01*
X133661306Y-98649635D01*
X133060345Y-98897947D01*
X132600154Y-99357336D01*
X132350794Y-99957862D01*
X132350226Y-100608103D01*
X132598538Y-101209064D01*
X132968774Y-101579946D01*
X132918732Y-101589900D01*
X132469221Y-101890254D01*
X132168867Y-102339765D01*
X132063397Y-102870000D01*
X132168867Y-103400235D01*
X132466317Y-103845401D01*
X132111686Y-104082358D01*
X131704680Y-104691485D01*
X131561758Y-105410000D01*
X129518974Y-105410000D01*
X129666757Y-105054100D01*
X129667242Y-104498339D01*
X129455010Y-103984697D01*
X129062370Y-103591371D01*
X128854488Y-103505051D01*
X129060303Y-103420010D01*
X129453629Y-103027370D01*
X129666757Y-102514100D01*
X129667242Y-101958339D01*
X129455010Y-101444697D01*
X129062370Y-101051371D01*
X128549100Y-100838243D01*
X127993339Y-100837758D01*
X127479697Y-101049990D01*
X127270490Y-101258832D01*
X127063390Y-101051371D01*
X126550120Y-100838243D01*
X125994359Y-100837758D01*
X125480717Y-101049990D01*
X125087391Y-101442630D01*
X124874263Y-101955900D01*
X124873778Y-102511661D01*
X120090000Y-102511661D01*
X120090000Y-99212282D01*
X122818839Y-99212282D01*
X122995585Y-99445897D01*
X123781936Y-99518397D01*
X124146415Y-99445897D01*
X124323161Y-99212282D01*
X123571000Y-98460121D01*
X122818839Y-99212282D01*
X120090000Y-99212282D01*
X120090000Y-97716456D01*
X121558123Y-97716456D01*
X121630623Y-98080935D01*
X121864238Y-98257681D01*
X122616399Y-97505520D01*
X124525601Y-97505520D01*
X125277762Y-98257681D01*
X125511377Y-98080935D01*
X125583877Y-97294584D01*
X125511377Y-96930105D01*
X125277762Y-96753359D01*
X124525601Y-97505520D01*
X122616399Y-97505520D01*
X121864238Y-96753359D01*
X121630623Y-96930105D01*
X121558123Y-97716456D01*
X120090000Y-97716456D01*
X120090000Y-95798758D01*
X122818839Y-95798758D01*
X123571000Y-96550919D01*
X124323161Y-95798758D01*
X124146415Y-95565143D01*
X123360064Y-95492643D01*
X122995585Y-95565143D01*
X122818839Y-95798758D01*
X120090000Y-95798758D01*
X120090000Y-91509931D01*
X120242152Y-90745011D01*
X120635830Y-90155830D01*
X121225011Y-89762152D01*
X121989931Y-89610000D01*
X122806832Y-89610000D01*
X122316239Y-89812709D01*
X122316239Y-89812709D01*
G37*
X122316239Y-89812709D02*
X121565345Y-90562293D01*
X121158464Y-91542173D01*
X121157538Y-92603172D01*
X121562709Y-93583761D01*
X122312293Y-94334655D01*
X123292173Y-94741536D01*
X124353172Y-94742462D01*
X124899410Y-94516761D01*
X148674157Y-94516761D01*
X148849826Y-95399910D01*
X149165518Y-95725873D01*
X150530392Y-94361000D01*
X149165518Y-92996127D01*
X148849826Y-93322090D01*
X148674157Y-94516761D01*
X124899410Y-94516761D01*
X125333761Y-94337291D01*
X126084655Y-93587707D01*
X126333261Y-92988996D01*
X129019538Y-92988996D01*
X129235826Y-93118936D01*
X129546456Y-92988996D01*
X136004538Y-92988996D01*
X136220826Y-93118936D01*
X136531456Y-92988996D01*
X142989538Y-92988996D01*
X143205826Y-93118936D01*
X143805697Y-92868004D01*
X144124105Y-92588767D01*
X144119718Y-92336486D01*
X143228373Y-92097651D01*
X142989538Y-92988996D01*
X136531456Y-92988996D01*
X136820697Y-92868004D01*
X137139105Y-92588767D01*
X137134718Y-92336486D01*
X136243373Y-92097651D01*
X136004538Y-92988996D01*
X129546456Y-92988996D01*
X129835697Y-92868004D01*
X130154105Y-92588767D01*
X130149718Y-92336486D01*
X129258373Y-92097651D01*
X129019538Y-92988996D01*
X126333261Y-92988996D01*
X126491536Y-92607827D01*
X126492226Y-91816417D01*
X127271655Y-91816417D01*
X127522587Y-92416288D01*
X127801824Y-92734696D01*
X128054105Y-92730309D01*
X128292940Y-91838964D01*
X128208794Y-91816417D01*
X134256655Y-91816417D01*
X134507587Y-92416288D01*
X134786824Y-92734696D01*
X135039105Y-92730309D01*
X135277940Y-91838964D01*
X135193794Y-91816417D01*
X141241655Y-91816417D01*
X141492587Y-92416288D01*
X141771824Y-92734696D01*
X142024105Y-92730309D01*
X142262940Y-91838964D01*
X141371595Y-91600129D01*
X141241655Y-91816417D01*
X135193794Y-91816417D01*
X134386595Y-91600129D01*
X134256655Y-91816417D01*
X128208794Y-91816417D01*
X127401595Y-91600129D01*
X127271655Y-91816417D01*
X126492226Y-91816417D01*
X126492462Y-91546828D01*
X126321149Y-91132218D01*
X129517060Y-91132218D01*
X130408405Y-91371053D01*
X130538345Y-91154765D01*
X130528914Y-91132218D01*
X136502060Y-91132218D01*
X137393405Y-91371053D01*
X137523345Y-91154765D01*
X137513914Y-91132218D01*
X143487060Y-91132218D01*
X144378405Y-91371053D01*
X144508345Y-91154765D01*
X144257413Y-90554894D01*
X143978176Y-90236486D01*
X143725895Y-90240873D01*
X143487060Y-91132218D01*
X137513914Y-91132218D01*
X137272413Y-90554894D01*
X137121153Y-90382415D01*
X141625895Y-90382415D01*
X141630282Y-90634696D01*
X142521627Y-90873531D01*
X142760462Y-89982186D01*
X142544174Y-89852246D01*
X141944303Y-90103178D01*
X141625895Y-90382415D01*
X137121153Y-90382415D01*
X136993176Y-90236486D01*
X136740895Y-90240873D01*
X136502060Y-91132218D01*
X130528914Y-91132218D01*
X130287413Y-90554894D01*
X130136153Y-90382415D01*
X134640895Y-90382415D01*
X134645282Y-90634696D01*
X135536627Y-90873531D01*
X135775462Y-89982186D01*
X135559174Y-89852246D01*
X134959303Y-90103178D01*
X134640895Y-90382415D01*
X130136153Y-90382415D01*
X130008176Y-90236486D01*
X129755895Y-90240873D01*
X129517060Y-91132218D01*
X126321149Y-91132218D01*
X126087291Y-90566239D01*
X125903788Y-90382415D01*
X127655895Y-90382415D01*
X127660282Y-90634696D01*
X128551627Y-90873531D01*
X128790462Y-89982186D01*
X128574174Y-89852246D01*
X127974303Y-90103178D01*
X127655895Y-90382415D01*
X125903788Y-90382415D01*
X125337707Y-89815345D01*
X124843180Y-89610000D01*
X155614609Y-89610000D01*
X156718000Y-90713392D01*
X156718000Y-93210893D01*
X155596250Y-92089143D01*
X155610392Y-92075000D01*
X154245518Y-90710127D01*
X153929826Y-91036090D01*
X153786685Y-92009545D01*
X153334264Y-91557124D01*
X153129872Y-91761517D01*
X152803910Y-91445826D01*
X151609239Y-91270157D01*
X150726090Y-91445826D01*
X150400127Y-91761518D01*
X151765000Y-93126392D01*
X151779142Y-93112249D01*
X153013751Y-94346858D01*
X152999608Y-94361000D01*
X153013751Y-94375143D01*
X151779142Y-95609751D01*
X151765000Y-95595608D01*
X150400127Y-96960482D01*
X150726090Y-97276174D01*
X151920761Y-97451843D01*
X152803910Y-97276174D01*
X153129872Y-96960483D01*
X153295621Y-97126233D01*
X153295621Y-100571300D01*
X153374206Y-100988941D01*
X153621031Y-101372519D01*
X153997644Y-101629848D01*
X154444700Y-101720379D01*
X154813000Y-101720379D01*
X154813000Y-117400000D01*
X124843168Y-117400000D01*
X125333761Y-117197291D01*
X126084655Y-116447707D01*
X126175679Y-116228495D01*
X151400510Y-116228495D01*
X151400510Y-116695800D01*
X151497183Y-116929189D01*
X151675812Y-117107817D01*
X151909201Y-117204490D01*
X152376505Y-117204490D01*
X152535255Y-117045740D01*
X152535255Y-116069745D01*
X153534745Y-116069745D01*
X153534745Y-117045740D01*
X153693495Y-117204490D01*
X154160799Y-117204490D01*
X154394188Y-117107817D01*
X154572817Y-116929189D01*
X154669490Y-116695800D01*
X154669490Y-116228495D01*
X154510740Y-116069745D01*
X153534745Y-116069745D01*
X152535255Y-116069745D01*
X151559260Y-116069745D01*
X151400510Y-116228495D01*
X126175679Y-116228495D01*
X126491536Y-115467827D01*
X126492429Y-114444200D01*
X151400510Y-114444200D01*
X151400510Y-114911505D01*
X151559260Y-115070255D01*
X152535255Y-115070255D01*
X152535255Y-114094260D01*
X153534745Y-114094260D01*
X153534745Y-115070255D01*
X154510740Y-115070255D01*
X154669490Y-114911505D01*
X154669490Y-114444200D01*
X154572817Y-114210811D01*
X154394188Y-114032183D01*
X154160799Y-113935510D01*
X153693495Y-113935510D01*
X153534745Y-114094260D01*
X152535255Y-114094260D01*
X152376505Y-113935510D01*
X151909201Y-113935510D01*
X151675812Y-114032183D01*
X151497183Y-114210811D01*
X151400510Y-114444200D01*
X126492429Y-114444200D01*
X126492462Y-114406828D01*
X126087291Y-113426239D01*
X125337707Y-112675345D01*
X124357827Y-112268464D01*
X123296828Y-112267538D01*
X122316239Y-112672709D01*
X121565345Y-113422293D01*
X121158464Y-114402173D01*
X121157538Y-115463172D01*
X121562709Y-116443761D01*
X122312293Y-117194655D01*
X122806820Y-117400000D01*
X121989931Y-117400000D01*
X121225011Y-117247848D01*
X120635830Y-116854170D01*
X120242152Y-116264989D01*
X120090000Y-115500069D01*
X120090000Y-111211242D01*
X122818839Y-111211242D01*
X122995585Y-111444857D01*
X123781936Y-111517357D01*
X124146415Y-111444857D01*
X124323161Y-111211242D01*
X123571000Y-110459081D01*
X122818839Y-111211242D01*
X120090000Y-111211242D01*
X120090000Y-109715416D01*
X121558123Y-109715416D01*
X121630623Y-110079895D01*
X121864238Y-110256641D01*
X122616399Y-109504480D01*
X124525601Y-109504480D01*
X125277762Y-110256641D01*
X125511377Y-110079895D01*
X125583877Y-109293544D01*
X125511377Y-108929065D01*
X125277762Y-108752319D01*
X124525601Y-109504480D01*
X122616399Y-109504480D01*
X121864238Y-108752319D01*
X121630623Y-108929065D01*
X121558123Y-109715416D01*
X120090000Y-109715416D01*
X120090000Y-107797718D01*
X122818839Y-107797718D01*
X123571000Y-108549879D01*
X123591565Y-108529314D01*
X132227240Y-108529314D01*
X132314205Y-108645869D01*
X132669692Y-109041283D01*
X133149437Y-109270560D01*
X133360160Y-109148185D01*
X133360160Y-108325285D01*
X134609840Y-108325285D01*
X134609840Y-109148185D01*
X134820563Y-109270560D01*
X135300308Y-109041283D01*
X135655795Y-108645869D01*
X135742760Y-108529314D01*
X139212240Y-108529314D01*
X139299205Y-108645869D01*
X139654692Y-109041283D01*
X140134437Y-109270560D01*
X140345160Y-109148185D01*
X140345160Y-108325285D01*
X141594840Y-108325285D01*
X141594840Y-109148185D01*
X141805563Y-109270560D01*
X142285308Y-109041283D01*
X142640795Y-108645869D01*
X142727760Y-108529314D01*
X146197240Y-108529314D01*
X146284205Y-108645869D01*
X146639692Y-109041283D01*
X147119437Y-109270560D01*
X147330160Y-109148185D01*
X147330160Y-108325285D01*
X148579840Y-108325285D01*
X148579840Y-109148185D01*
X148790563Y-109270560D01*
X149270308Y-109041283D01*
X149625795Y-108645869D01*
X149712760Y-108529314D01*
X149622120Y-108325285D01*
X148579840Y-108325285D01*
X147330160Y-108325285D01*
X146287880Y-108325285D01*
X146197240Y-108529314D01*
X142727760Y-108529314D01*
X142637120Y-108325285D01*
X141594840Y-108325285D01*
X140345160Y-108325285D01*
X139302880Y-108325285D01*
X139212240Y-108529314D01*
X135742760Y-108529314D01*
X135652120Y-108325285D01*
X134609840Y-108325285D01*
X133360160Y-108325285D01*
X132317880Y-108325285D01*
X132227240Y-108529314D01*
X123591565Y-108529314D01*
X124323161Y-107797718D01*
X124146415Y-107564103D01*
X123360064Y-107491603D01*
X122995585Y-107564103D01*
X122818839Y-107797718D01*
X120090000Y-107797718D01*
X120090000Y-105897821D01*
X125687014Y-105897821D01*
X125772539Y-106109295D01*
X126321097Y-106198489D01*
X126769501Y-106109295D01*
X126855026Y-105897821D01*
X126271020Y-105313815D01*
X125687014Y-105897821D01*
X120090000Y-105897821D01*
X120090000Y-104825077D01*
X124847531Y-104825077D01*
X124936725Y-105273481D01*
X125148199Y-105359006D01*
X125732205Y-104775000D01*
X125148199Y-104190994D01*
X124936725Y-104276519D01*
X124847531Y-104825077D01*
X120090000Y-104825077D01*
X120090000Y-102511661D01*
X124873778Y-102511661D01*
X125086010Y-103025303D01*
X125478650Y-103418629D01*
X125737926Y-103526290D01*
X125687014Y-103652179D01*
X126271020Y-104236185D01*
X126855026Y-103652179D01*
X126804112Y-103526287D01*
X127061323Y-103420010D01*
X127270530Y-103211168D01*
X127477630Y-103418629D01*
X127685512Y-103504949D01*
X127479697Y-103589990D01*
X127086371Y-103982630D01*
X126873243Y-104495900D01*
X126873055Y-104711780D01*
X126809835Y-104775000D01*
X126872944Y-104838109D01*
X126872758Y-105051661D01*
X127084990Y-105565303D01*
X127477630Y-105958629D01*
X127990900Y-106171757D01*
X128546661Y-106172242D01*
X129060303Y-105960010D01*
X129453629Y-105567370D01*
X129518974Y-105410000D01*
X131561758Y-105410000D01*
X131704680Y-106128515D01*
X132111686Y-106737642D01*
X132528286Y-107016005D01*
X132314205Y-107254131D01*
X132227240Y-107370686D01*
X132317880Y-107574715D01*
X133360160Y-107574715D01*
X133360160Y-107271822D01*
X133439328Y-107287570D01*
X133575612Y-107287570D01*
X133911258Y-107527462D01*
X134529676Y-107670850D01*
X135107502Y-107574715D01*
X135652120Y-107574715D01*
X135742760Y-107370686D01*
X135656210Y-107254687D01*
X135694571Y-107230767D01*
X136063703Y-106714295D01*
X136164559Y-106279315D01*
X136265320Y-106128515D01*
X136408242Y-105410000D01*
X138546758Y-105410000D01*
X138689680Y-106128515D01*
X139096686Y-106737642D01*
X139513286Y-107016005D01*
X139299205Y-107254131D01*
X139212240Y-107370686D01*
X139302880Y-107574715D01*
X140345160Y-107574715D01*
X140345160Y-107271822D01*
X140424328Y-107287570D01*
X141515672Y-107287570D01*
X141594840Y-107271822D01*
X141594840Y-107574715D01*
X142637120Y-107574715D01*
X142727760Y-107370686D01*
X142640795Y-107254131D01*
X142426714Y-107016005D01*
X142843314Y-106737642D01*
X143250320Y-106128515D01*
X143393242Y-105410000D01*
X145531758Y-105410000D01*
X145674680Y-106128515D01*
X146081686Y-106737642D01*
X146498286Y-107016005D01*
X146284205Y-107254131D01*
X146197240Y-107370686D01*
X146287880Y-107574715D01*
X147330160Y-107574715D01*
X147330160Y-107271822D01*
X147409328Y-107287570D01*
X148500672Y-107287570D01*
X148579840Y-107271822D01*
X148579840Y-107574715D01*
X149622120Y-107574715D01*
X149712760Y-107370686D01*
X149625795Y-107254131D01*
X149411714Y-107016005D01*
X149828314Y-106737642D01*
X150235320Y-106128515D01*
X150378242Y-105410000D01*
X150235320Y-104691485D01*
X149828314Y-104082358D01*
X149473683Y-103845401D01*
X149771133Y-103400235D01*
X149876603Y-102870000D01*
X149771133Y-102339765D01*
X149470779Y-101890254D01*
X149021268Y-101589900D01*
X148970820Y-101579865D01*
X149339846Y-101211482D01*
X149589206Y-100610956D01*
X149589774Y-99960715D01*
X149341462Y-99359754D01*
X148882073Y-98899563D01*
X148281547Y-98650203D01*
X147631306Y-98649635D01*
X147030345Y-98897947D01*
X146570154Y-99357336D01*
X146320794Y-99957862D01*
X146320226Y-100608103D01*
X146568538Y-101209064D01*
X146938774Y-101579946D01*
X146888732Y-101589900D01*
X146439221Y-101890254D01*
X146138867Y-102339765D01*
X146033397Y-102870000D01*
X146138867Y-103400235D01*
X146436317Y-103845401D01*
X146081686Y-104082358D01*
X145674680Y-104691485D01*
X145531758Y-105410000D01*
X143393242Y-105410000D01*
X143250320Y-104691485D01*
X142843314Y-104082358D01*
X142488683Y-103845401D01*
X142786133Y-103400235D01*
X142891603Y-102870000D01*
X142786133Y-102339765D01*
X142485779Y-101890254D01*
X142036268Y-101589900D01*
X141985820Y-101579865D01*
X142354846Y-101211482D01*
X142604206Y-100610956D01*
X142604774Y-99960715D01*
X142356462Y-99359754D01*
X141897073Y-98899563D01*
X141296547Y-98650203D01*
X140646306Y-98649635D01*
X140045345Y-98897947D01*
X139585154Y-99357336D01*
X139335794Y-99957862D01*
X139335226Y-100608103D01*
X139583538Y-101209064D01*
X139953774Y-101579946D01*
X139903732Y-101589900D01*
X139454221Y-101890254D01*
X139153867Y-102339765D01*
X139048397Y-102870000D01*
X139153867Y-103400235D01*
X139451317Y-103845401D01*
X139096686Y-104082358D01*
X138689680Y-104691485D01*
X138546758Y-105410000D01*
X136408242Y-105410000D01*
X136265320Y-104691485D01*
X135858314Y-104082358D01*
X135503683Y-103845401D01*
X135801133Y-103400235D01*
X135906603Y-102870000D01*
X135801133Y-102339765D01*
X135500779Y-101890254D01*
X135051268Y-101589900D01*
X135000820Y-101579865D01*
X135369846Y-101211482D01*
X135619206Y-100610956D01*
X135619774Y-99960715D01*
X135371462Y-99359754D01*
X134912073Y-98899563D01*
X134311547Y-98650203D01*
X133661306Y-98649635D01*
X133060345Y-98897947D01*
X132600154Y-99357336D01*
X132350794Y-99957862D01*
X132350226Y-100608103D01*
X132598538Y-101209064D01*
X132968774Y-101579946D01*
X132918732Y-101589900D01*
X132469221Y-101890254D01*
X132168867Y-102339765D01*
X132063397Y-102870000D01*
X132168867Y-103400235D01*
X132466317Y-103845401D01*
X132111686Y-104082358D01*
X131704680Y-104691485D01*
X131561758Y-105410000D01*
X129518974Y-105410000D01*
X129666757Y-105054100D01*
X129667242Y-104498339D01*
X129455010Y-103984697D01*
X129062370Y-103591371D01*
X128854488Y-103505051D01*
X129060303Y-103420010D01*
X129453629Y-103027370D01*
X129666757Y-102514100D01*
X129667242Y-101958339D01*
X129455010Y-101444697D01*
X129062370Y-101051371D01*
X128549100Y-100838243D01*
X127993339Y-100837758D01*
X127479697Y-101049990D01*
X127270490Y-101258832D01*
X127063390Y-101051371D01*
X126550120Y-100838243D01*
X125994359Y-100837758D01*
X125480717Y-101049990D01*
X125087391Y-101442630D01*
X124874263Y-101955900D01*
X124873778Y-102511661D01*
X120090000Y-102511661D01*
X120090000Y-99212282D01*
X122818839Y-99212282D01*
X122995585Y-99445897D01*
X123781936Y-99518397D01*
X124146415Y-99445897D01*
X124323161Y-99212282D01*
X123571000Y-98460121D01*
X122818839Y-99212282D01*
X120090000Y-99212282D01*
X120090000Y-97716456D01*
X121558123Y-97716456D01*
X121630623Y-98080935D01*
X121864238Y-98257681D01*
X122616399Y-97505520D01*
X124525601Y-97505520D01*
X125277762Y-98257681D01*
X125511377Y-98080935D01*
X125583877Y-97294584D01*
X125511377Y-96930105D01*
X125277762Y-96753359D01*
X124525601Y-97505520D01*
X122616399Y-97505520D01*
X121864238Y-96753359D01*
X121630623Y-96930105D01*
X121558123Y-97716456D01*
X120090000Y-97716456D01*
X120090000Y-95798758D01*
X122818839Y-95798758D01*
X123571000Y-96550919D01*
X124323161Y-95798758D01*
X124146415Y-95565143D01*
X123360064Y-95492643D01*
X122995585Y-95565143D01*
X122818839Y-95798758D01*
X120090000Y-95798758D01*
X120090000Y-91509931D01*
X120242152Y-90745011D01*
X120635830Y-90155830D01*
X121225011Y-89762152D01*
X121989931Y-89610000D01*
X122806832Y-89610000D01*
X122316239Y-89812709D01*
G36*
X166930000Y-101168732D02*
X166701951Y-100827433D01*
X166392926Y-100620949D01*
X166602228Y-100345974D01*
X166520764Y-100126800D01*
X165608000Y-100126800D01*
X165608000Y-100306782D01*
X165294384Y-100244400D01*
X164905616Y-100244400D01*
X164592000Y-100306782D01*
X164592000Y-100126800D01*
X163679236Y-100126800D01*
X163597772Y-100345974D01*
X163807074Y-100620949D01*
X163498049Y-100827433D01*
X163066541Y-101473230D01*
X162915016Y-102235000D01*
X163066541Y-102996770D01*
X163406130Y-103505000D01*
X163066541Y-104013230D01*
X162915016Y-104775000D01*
X163066541Y-105536770D01*
X163204182Y-105742764D01*
X163025452Y-106004344D01*
X162934921Y-106451400D01*
X162934921Y-108178600D01*
X163013506Y-108596241D01*
X163260331Y-108979819D01*
X163636944Y-109237148D01*
X164084000Y-109327679D01*
X166116000Y-109327679D01*
X166533641Y-109249094D01*
X166917219Y-109002269D01*
X166930000Y-108983563D01*
X166930000Y-113916832D01*
X166727291Y-113426239D01*
X165977707Y-112675345D01*
X164997827Y-112268464D01*
X163936828Y-112267538D01*
X162956239Y-112672709D01*
X162205345Y-113422293D01*
X161798464Y-114402173D01*
X161797538Y-115463172D01*
X162202709Y-116443761D01*
X162952293Y-117194655D01*
X163446820Y-117400000D01*
X156337000Y-117400000D01*
X156337000Y-116307038D01*
X156656120Y-116307038D01*
X156875757Y-116635808D01*
X157377956Y-117028916D01*
X157615255Y-116967503D01*
X157615255Y-116069745D01*
X158614745Y-116069745D01*
X158614745Y-116967503D01*
X158852044Y-117028916D01*
X159354243Y-116635808D01*
X159573880Y-116307038D01*
X159503547Y-116069745D01*
X158614745Y-116069745D01*
X157615255Y-116069745D01*
X156726453Y-116069745D01*
X156656120Y-116307038D01*
X156337000Y-116307038D01*
X156337000Y-114832962D01*
X156656120Y-114832962D01*
X156726453Y-115070255D01*
X157615255Y-115070255D01*
X157615255Y-114172497D01*
X158614745Y-114172497D01*
X158614745Y-115070255D01*
X159503547Y-115070255D01*
X159573880Y-114832962D01*
X159354243Y-114504192D01*
X158852044Y-114111084D01*
X158614745Y-114172497D01*
X157615255Y-114172497D01*
X157377956Y-114111084D01*
X156875757Y-114504192D01*
X156656120Y-114832962D01*
X156337000Y-114832962D01*
X156337000Y-99044000D01*
X157718000Y-99044000D01*
X157718000Y-101047550D01*
X157876750Y-101206300D01*
X159371610Y-101206300D01*
X159604999Y-101109627D01*
X159783627Y-100930998D01*
X159880300Y-100697609D01*
X159880300Y-99202750D01*
X159721576Y-99044026D01*
X163597772Y-99044026D01*
X163679236Y-99263200D01*
X164592000Y-99263200D01*
X164592000Y-98416657D01*
X165608000Y-98416657D01*
X165608000Y-99263200D01*
X166520764Y-99263200D01*
X166602228Y-99044026D01*
X166306478Y-98655477D01*
X165828433Y-98331228D01*
X165608000Y-98416657D01*
X164592000Y-98416657D01*
X164371567Y-98331228D01*
X163893522Y-98655477D01*
X163597772Y-99044026D01*
X159721576Y-99044026D01*
X159721550Y-99044000D01*
X157718000Y-99044000D01*
X156337000Y-99044000D01*
X156337000Y-97278000D01*
X157718000Y-97278000D01*
X157718000Y-97298000D01*
X159721550Y-97298000D01*
X159880300Y-97139250D01*
X159880300Y-96012000D01*
X166930000Y-96012000D01*
X166930000Y-101168732D01*
X166930000Y-101168732D01*
G37*
X166930000Y-101168732D02*
X166701951Y-100827433D01*
X166392926Y-100620949D01*
X166602228Y-100345974D01*
X166520764Y-100126800D01*
X165608000Y-100126800D01*
X165608000Y-100306782D01*
X165294384Y-100244400D01*
X164905616Y-100244400D01*
X164592000Y-100306782D01*
X164592000Y-100126800D01*
X163679236Y-100126800D01*
X163597772Y-100345974D01*
X163807074Y-100620949D01*
X163498049Y-100827433D01*
X163066541Y-101473230D01*
X162915016Y-102235000D01*
X163066541Y-102996770D01*
X163406130Y-103505000D01*
X163066541Y-104013230D01*
X162915016Y-104775000D01*
X163066541Y-105536770D01*
X163204182Y-105742764D01*
X163025452Y-106004344D01*
X162934921Y-106451400D01*
X162934921Y-108178600D01*
X163013506Y-108596241D01*
X163260331Y-108979819D01*
X163636944Y-109237148D01*
X164084000Y-109327679D01*
X166116000Y-109327679D01*
X166533641Y-109249094D01*
X166917219Y-109002269D01*
X166930000Y-108983563D01*
X166930000Y-113916832D01*
X166727291Y-113426239D01*
X165977707Y-112675345D01*
X164997827Y-112268464D01*
X163936828Y-112267538D01*
X162956239Y-112672709D01*
X162205345Y-113422293D01*
X161798464Y-114402173D01*
X161797538Y-115463172D01*
X162202709Y-116443761D01*
X162952293Y-117194655D01*
X163446820Y-117400000D01*
X156337000Y-117400000D01*
X156337000Y-116307038D01*
X156656120Y-116307038D01*
X156875757Y-116635808D01*
X157377956Y-117028916D01*
X157615255Y-116967503D01*
X157615255Y-116069745D01*
X158614745Y-116069745D01*
X158614745Y-116967503D01*
X158852044Y-117028916D01*
X159354243Y-116635808D01*
X159573880Y-116307038D01*
X159503547Y-116069745D01*
X158614745Y-116069745D01*
X157615255Y-116069745D01*
X156726453Y-116069745D01*
X156656120Y-116307038D01*
X156337000Y-116307038D01*
X156337000Y-114832962D01*
X156656120Y-114832962D01*
X156726453Y-115070255D01*
X157615255Y-115070255D01*
X157615255Y-114172497D01*
X158614745Y-114172497D01*
X158614745Y-115070255D01*
X159503547Y-115070255D01*
X159573880Y-114832962D01*
X159354243Y-114504192D01*
X158852044Y-114111084D01*
X158614745Y-114172497D01*
X157615255Y-114172497D01*
X157377956Y-114111084D01*
X156875757Y-114504192D01*
X156656120Y-114832962D01*
X156337000Y-114832962D01*
X156337000Y-99044000D01*
X157718000Y-99044000D01*
X157718000Y-101047550D01*
X157876750Y-101206300D01*
X159371610Y-101206300D01*
X159604999Y-101109627D01*
X159783627Y-100930998D01*
X159880300Y-100697609D01*
X159880300Y-99202750D01*
X159721576Y-99044026D01*
X163597772Y-99044026D01*
X163679236Y-99263200D01*
X164592000Y-99263200D01*
X164592000Y-98416657D01*
X165608000Y-98416657D01*
X165608000Y-99263200D01*
X166520764Y-99263200D01*
X166602228Y-99044026D01*
X166306478Y-98655477D01*
X165828433Y-98331228D01*
X165608000Y-98416657D01*
X164592000Y-98416657D01*
X164371567Y-98331228D01*
X163893522Y-98655477D01*
X163597772Y-99044026D01*
X159721576Y-99044026D01*
X159721550Y-99044000D01*
X157718000Y-99044000D01*
X156337000Y-99044000D01*
X156337000Y-97278000D01*
X157718000Y-97278000D01*
X157718000Y-97298000D01*
X159721550Y-97298000D01*
X159880300Y-97139250D01*
X159880300Y-96012000D01*
X166930000Y-96012000D01*
X166930000Y-101168732D01*
M02*
