%TF.GenerationSoftware,KiCad,Pcbnew,4.0.1-stable*%
%TF.CreationDate,2016-01-20T19:55:13+01:00*%
%TF.ProjectId,pwm_board,70776D5F626F6172642E6B696361645F,rev?*%
%TF.FileFunction,Copper,L1,Top,Signal*%
%FSLAX46Y46*%
G04 Gerber Fmt 4.6, Leading zero omitted, Abs format (unit mm)*
G04 Created by KiCad (PCBNEW 4.0.1-stable) date Wed 20 Jan 2016 07:55:13 PM CET*
%MOMM*%
G01*
G04 APERTURE LIST*
%ADD10C,0.100000*%
%ADD11O,1.998980X1.998980*%
%ADD12R,1.998980X1.998980*%
%ADD13C,4.800600*%
%ADD14R,4.800600X4.800600*%
%ADD15C,1.524000*%
%ADD16C,2.700020*%
%ADD17C,1.998980*%
%ADD18C,4.064000*%
%ADD19O,2.499360X1.501140*%
%ADD20R,2.032000X1.727200*%
%ADD21O,2.032000X1.727200*%
%ADD22C,1.000000*%
%ADD23C,0.500000*%
G04 APERTURE END LIST*
D10*
D11*
X158115000Y-115570000D03*
D12*
X153035000Y-115570000D03*
D13*
X156845000Y-92075000D03*
D14*
X156845000Y-98171000D03*
D13*
X151765000Y-94361000D03*
D15*
X128270000Y-102235000D03*
X128270000Y-104775000D03*
X126271020Y-104775000D03*
X126271020Y-102235000D03*
D16*
X123571000Y-97505520D03*
X123571000Y-109504480D03*
D17*
X128905000Y-91485591D03*
X133985000Y-100284409D03*
X135890000Y-91485591D03*
X140970000Y-100284409D03*
X142875000Y-91485591D03*
X147955000Y-100284409D03*
D18*
X123825000Y-92075000D03*
X123825000Y-114935000D03*
X164465000Y-114935000D03*
X164465000Y-92075000D03*
D19*
X133985000Y-105410000D03*
X133985000Y-102870000D03*
X133985000Y-107950000D03*
X140970000Y-105410000D03*
X140970000Y-102870000D03*
X140970000Y-107950000D03*
X147955000Y-105410000D03*
X147955000Y-102870000D03*
X147955000Y-107950000D03*
D20*
X165100000Y-107315000D03*
D21*
X165100000Y-104775000D03*
X165100000Y-102235000D03*
X165100000Y-99695000D03*
D22*
X156845000Y-98171000D02*
X157861000Y-98171000D01*
X156845000Y-98171000D02*
X156845000Y-100330000D01*
X156845000Y-100330000D02*
X156845000Y-98171000D01*
X156845000Y-98171000D02*
X155575000Y-99441000D01*
X156845000Y-98171000D02*
X158115000Y-99441000D01*
D23*
X128270000Y-102235000D02*
X128270000Y-100965000D01*
X138475591Y-97790000D02*
X140970000Y-100284409D01*
X131445000Y-97790000D02*
X138475591Y-97790000D01*
X128270000Y-100965000D02*
X131445000Y-97790000D01*
X128270000Y-102235000D02*
X128270000Y-101600000D01*
X140970000Y-100284409D02*
X140970000Y-102870000D01*
X133985000Y-100284409D02*
X133985000Y-102870000D01*
X128270000Y-104775000D02*
X130175000Y-104775000D01*
X132080000Y-102870000D02*
X133985000Y-102870000D01*
X130175000Y-104775000D02*
X132080000Y-102870000D01*
X126271020Y-102235000D02*
X126271020Y-99788980D01*
X144190591Y-96520000D02*
X147955000Y-100284409D01*
X129540000Y-96520000D02*
X144190591Y-96520000D01*
X126271020Y-99788980D02*
X129540000Y-96520000D01*
X147955000Y-100284409D02*
X147955000Y-102870000D01*
X126271020Y-102235000D02*
X126365000Y-102141020D01*
X126271020Y-102235000D02*
X126365000Y-102235000D01*
D22*
X140970000Y-105410000D02*
X144145000Y-105410000D01*
X162848430Y-104775000D02*
X165100000Y-104775000D01*
X161722645Y-105900785D02*
X162848430Y-104775000D01*
X154449215Y-105900785D02*
X161722645Y-105900785D01*
X149225000Y-111125000D02*
X154449215Y-105900785D01*
X145415000Y-111125000D02*
X149225000Y-111125000D01*
X144145000Y-109855000D02*
X145415000Y-111125000D01*
X144145000Y-105410000D02*
X144145000Y-109855000D01*
X165100000Y-102235000D02*
X162560000Y-102235000D01*
X151765000Y-105410000D02*
X147955000Y-105410000D01*
X153670000Y-103505000D02*
X151765000Y-105410000D01*
X161290000Y-103505000D02*
X153670000Y-103505000D01*
X162560000Y-102235000D02*
X161290000Y-103505000D01*
X133985000Y-105410000D02*
X137160000Y-105410000D01*
X163830000Y-107315000D02*
X165100000Y-107315000D01*
X162560000Y-108585000D02*
X163830000Y-107315000D01*
X155575000Y-108585000D02*
X162560000Y-108585000D01*
X150495000Y-113665000D02*
X155575000Y-108585000D01*
X140970000Y-113665000D02*
X150495000Y-113665000D01*
X137160000Y-109855000D02*
X140970000Y-113665000D01*
X137160000Y-105410000D02*
X137160000Y-109855000D01*
M02*
