M48
METRIC,TZ
T1C0.813
T2C1.001
T3C1.016
T4C1.097
T5C2.301
T6C3.048
%
G90
G05
T1
X126.271Y-102.235
X126.271Y-104.775
X128.27Y-102.235
X128.27Y-104.775
T2
X128.905Y-91.486
X133.985Y-100.284
X133.985Y-102.87
X133.985Y-105.41
X133.985Y-107.95
X135.89Y-91.486
X140.97Y-100.284
X140.97Y-102.87
X140.97Y-105.41
X140.97Y-107.95
X142.875Y-91.486
X147.955Y-100.284
X147.955Y-102.87
X147.955Y-105.41
X147.955Y-107.95
T3
X165.1Y-99.695
X165.1Y-102.235
X165.1Y-104.775
X165.1Y-107.315
T4
X153.035Y-115.57
X158.115Y-115.57
T5
X123.571Y-97.506
X123.571Y-109.504
T6
X123.825Y-92.075
X123.825Y-114.935
X164.465Y-92.075
X164.465Y-114.935
T3
X151.765Y-93.599G85X151.765Y-95.123
G05
X157.607Y-92.075G85X156.083Y-92.075
G05
X157.607Y-98.171G85X156.083Y-98.171
G05
T0
M30
