%TF.GenerationSoftware,KiCad,Pcbnew,4.0.1-stable*%
%TF.CreationDate,2016-01-20T20:58:58+01:00*%
%TF.ProjectId,main_board,6D61696E5F626F6172642E6B69636164,rev?*%
%TF.FileFunction,Legend,Bot*%
%FSLAX46Y46*%
G04 Gerber Fmt 4.6, Leading zero omitted, Abs format (unit mm)*
G04 Created by KiCad (PCBNEW 4.0.1-stable) date Wed 20 Jan 2016 08:58:58 PM CET*
%MOMM*%
G01*
G04 APERTURE LIST*
%ADD10C,0.100000*%
%ADD11C,0.088900*%
G04 APERTURE END LIST*
D10*
D11*
X106343148Y-84872286D02*
X105936748Y-84872286D01*
X105936748Y-84717467D01*
X105956100Y-84678762D01*
X105975452Y-84659410D01*
X106014157Y-84640058D01*
X106072214Y-84640058D01*
X106110919Y-84659410D01*
X106130271Y-84678762D01*
X106149624Y-84717467D01*
X106149624Y-84872286D01*
X106343148Y-84253010D02*
X106343148Y-84485238D01*
X106343148Y-84369124D02*
X105936748Y-84369124D01*
X105994805Y-84407829D01*
X106033510Y-84446534D01*
X106052862Y-84485238D01*
X105975452Y-84098190D02*
X105956100Y-84078838D01*
X105936748Y-84040133D01*
X105936748Y-83943371D01*
X105956100Y-83904667D01*
X105975452Y-83885314D01*
X106014157Y-83865962D01*
X106052862Y-83865962D01*
X106110919Y-83885314D01*
X106343148Y-84117543D01*
X106343148Y-83865962D01*
X127640443Y-86217277D02*
X127659795Y-86236629D01*
X127679148Y-86294686D01*
X127679148Y-86333391D01*
X127659795Y-86391448D01*
X127621090Y-86430153D01*
X127582386Y-86449505D01*
X127504976Y-86468857D01*
X127446919Y-86468857D01*
X127369510Y-86449505D01*
X127330805Y-86430153D01*
X127292100Y-86391448D01*
X127272748Y-86333391D01*
X127272748Y-86294686D01*
X127292100Y-86236629D01*
X127311452Y-86217277D01*
X127272748Y-85965696D02*
X127272748Y-85888286D01*
X127292100Y-85849581D01*
X127330805Y-85810877D01*
X127408214Y-85791524D01*
X127543681Y-85791524D01*
X127621090Y-85810877D01*
X127659795Y-85849581D01*
X127679148Y-85888286D01*
X127679148Y-85965696D01*
X127659795Y-86004400D01*
X127621090Y-86043105D01*
X127543681Y-86062457D01*
X127408214Y-86062457D01*
X127330805Y-86043105D01*
X127292100Y-86004400D01*
X127272748Y-85965696D01*
X127679148Y-85617353D02*
X127272748Y-85617353D01*
X127679148Y-85385125D01*
X127272748Y-85385125D01*
X127679148Y-85191601D02*
X127272748Y-85191601D01*
X127679148Y-84959373D01*
X127272748Y-84959373D01*
X127717852Y-84862611D02*
X127717852Y-84552973D01*
X127272748Y-84378802D02*
X127272748Y-84340097D01*
X127292100Y-84301392D01*
X127311452Y-84282040D01*
X127350157Y-84262687D01*
X127427567Y-84243335D01*
X127524329Y-84243335D01*
X127601738Y-84262687D01*
X127640443Y-84282040D01*
X127659795Y-84301392D01*
X127679148Y-84340097D01*
X127679148Y-84378802D01*
X127659795Y-84417506D01*
X127640443Y-84436859D01*
X127601738Y-84456211D01*
X127524329Y-84475563D01*
X127427567Y-84475563D01*
X127350157Y-84456211D01*
X127311452Y-84436859D01*
X127292100Y-84417506D01*
X127272748Y-84378802D01*
X127311452Y-84088515D02*
X127292100Y-84069163D01*
X127272748Y-84030458D01*
X127272748Y-83933696D01*
X127292100Y-83894992D01*
X127311452Y-83875639D01*
X127350157Y-83856287D01*
X127388862Y-83856287D01*
X127446919Y-83875639D01*
X127679148Y-84107868D01*
X127679148Y-83856287D01*
X127272748Y-83720820D02*
X127679148Y-83449887D01*
X127272748Y-83449887D02*
X127679148Y-83720820D01*
X127272748Y-83217658D02*
X127272748Y-83178953D01*
X127292100Y-83140248D01*
X127311452Y-83120896D01*
X127350157Y-83101543D01*
X127427567Y-83082191D01*
X127524329Y-83082191D01*
X127601738Y-83101543D01*
X127640443Y-83120896D01*
X127659795Y-83140248D01*
X127679148Y-83178953D01*
X127679148Y-83217658D01*
X127659795Y-83256362D01*
X127640443Y-83275715D01*
X127601738Y-83295067D01*
X127524329Y-83314419D01*
X127427567Y-83314419D01*
X127350157Y-83295067D01*
X127311452Y-83275715D01*
X127292100Y-83256362D01*
X127272748Y-83217658D01*
X127272748Y-82714495D02*
X127272748Y-82908019D01*
X127466271Y-82927371D01*
X127446919Y-82908019D01*
X127427567Y-82869314D01*
X127427567Y-82772552D01*
X127446919Y-82733848D01*
X127466271Y-82714495D01*
X127504976Y-82695143D01*
X127601738Y-82695143D01*
X127640443Y-82714495D01*
X127659795Y-82733848D01*
X127679148Y-82772552D01*
X127679148Y-82869314D01*
X127659795Y-82908019D01*
X127640443Y-82927371D01*
X127641048Y-163193186D02*
X127234648Y-163193186D01*
X127234648Y-163038367D01*
X127254000Y-162999662D01*
X127273352Y-162980310D01*
X127312057Y-162960958D01*
X127370114Y-162960958D01*
X127408819Y-162980310D01*
X127428171Y-162999662D01*
X127447524Y-163038367D01*
X127447524Y-163193186D01*
X127641048Y-162573910D02*
X127641048Y-162806138D01*
X127641048Y-162690024D02*
X127234648Y-162690024D01*
X127292705Y-162728729D01*
X127331410Y-162767434D01*
X127350762Y-162806138D01*
X127370114Y-162225567D02*
X127641048Y-162225567D01*
X127215295Y-162322329D02*
X127505581Y-162419090D01*
X127505581Y-162167510D01*
X106266343Y-164131777D02*
X106285695Y-164151129D01*
X106305048Y-164209186D01*
X106305048Y-164247891D01*
X106285695Y-164305948D01*
X106246990Y-164344653D01*
X106208286Y-164364005D01*
X106130876Y-164383357D01*
X106072819Y-164383357D01*
X105995410Y-164364005D01*
X105956705Y-164344653D01*
X105918000Y-164305948D01*
X105898648Y-164247891D01*
X105898648Y-164209186D01*
X105918000Y-164151129D01*
X105937352Y-164131777D01*
X105898648Y-163880196D02*
X105898648Y-163802786D01*
X105918000Y-163764081D01*
X105956705Y-163725377D01*
X106034114Y-163706024D01*
X106169581Y-163706024D01*
X106246990Y-163725377D01*
X106285695Y-163764081D01*
X106305048Y-163802786D01*
X106305048Y-163880196D01*
X106285695Y-163918900D01*
X106246990Y-163957605D01*
X106169581Y-163976957D01*
X106034114Y-163976957D01*
X105956705Y-163957605D01*
X105918000Y-163918900D01*
X105898648Y-163880196D01*
X106305048Y-163531853D02*
X105898648Y-163531853D01*
X106305048Y-163299625D01*
X105898648Y-163299625D01*
X106305048Y-163106101D02*
X105898648Y-163106101D01*
X106305048Y-162873873D01*
X105898648Y-162873873D01*
X106343752Y-162777111D02*
X106343752Y-162467473D01*
X105898648Y-162293302D02*
X105898648Y-162254597D01*
X105918000Y-162215892D01*
X105937352Y-162196540D01*
X105976057Y-162177187D01*
X106053467Y-162157835D01*
X106150229Y-162157835D01*
X106227638Y-162177187D01*
X106266343Y-162196540D01*
X106285695Y-162215892D01*
X106305048Y-162254597D01*
X106305048Y-162293302D01*
X106285695Y-162332006D01*
X106266343Y-162351359D01*
X106227638Y-162370711D01*
X106150229Y-162390063D01*
X106053467Y-162390063D01*
X105976057Y-162370711D01*
X105937352Y-162351359D01*
X105918000Y-162332006D01*
X105898648Y-162293302D01*
X105937352Y-162003015D02*
X105918000Y-161983663D01*
X105898648Y-161944958D01*
X105898648Y-161848196D01*
X105918000Y-161809492D01*
X105937352Y-161790139D01*
X105976057Y-161770787D01*
X106014762Y-161770787D01*
X106072819Y-161790139D01*
X106305048Y-162022368D01*
X106305048Y-161770787D01*
X105898648Y-161635320D02*
X106305048Y-161364387D01*
X105898648Y-161364387D02*
X106305048Y-161635320D01*
X105898648Y-161132158D02*
X105898648Y-161093453D01*
X105918000Y-161054748D01*
X105937352Y-161035396D01*
X105976057Y-161016043D01*
X106053467Y-160996691D01*
X106150229Y-160996691D01*
X106227638Y-161016043D01*
X106266343Y-161035396D01*
X106285695Y-161054748D01*
X106305048Y-161093453D01*
X106305048Y-161132158D01*
X106285695Y-161170862D01*
X106266343Y-161190215D01*
X106227638Y-161209567D01*
X106150229Y-161228919D01*
X106053467Y-161228919D01*
X105976057Y-161209567D01*
X105937352Y-161190215D01*
X105918000Y-161170862D01*
X105898648Y-161132158D01*
X105898648Y-160628995D02*
X105898648Y-160822519D01*
X106092171Y-160841871D01*
X106072819Y-160822519D01*
X106053467Y-160783814D01*
X106053467Y-160687052D01*
X106072819Y-160648348D01*
X106092171Y-160628995D01*
X106130876Y-160609643D01*
X106227638Y-160609643D01*
X106266343Y-160628995D01*
X106285695Y-160648348D01*
X106305048Y-160687052D01*
X106305048Y-160783814D01*
X106285695Y-160822519D01*
X106266343Y-160841871D01*
M02*
