%TF.GenerationSoftware,KiCad,Pcbnew,4.0.1-stable*%
%TF.CreationDate,2016-01-20T20:58:58+01:00*%
%TF.ProjectId,main_board,6D61696E5F626F6172642E6B69636164,rev?*%
%TF.FileFunction,Copper,L1,Top,Signal*%
%FSLAX46Y46*%
G04 Gerber Fmt 4.6, Leading zero omitted, Abs format (unit mm)*
G04 Created by KiCad (PCBNEW 4.0.1-stable) date Wed 20 Jan 2016 08:58:58 PM CET*
%MOMM*%
G01*
G04 APERTURE LIST*
%ADD10C,0.100000*%
%ADD11R,1.100000X2.500000*%
%ADD12O,1.100000X2.500000*%
%ADD13R,2.032000X1.727200*%
%ADD14O,2.032000X1.727200*%
%ADD15C,1.524000*%
%ADD16C,2.700020*%
%ADD17C,4.064000*%
%ADD18R,1.727200X2.032000*%
%ADD19O,1.727200X2.032000*%
%ADD20R,2.000000X1.700000*%
%ADD21C,1.879600*%
%ADD22R,2.235200X2.235200*%
%ADD23C,1.000000*%
%ADD24C,0.600000*%
%ADD25C,0.250000*%
%ADD26C,1.000000*%
G04 APERTURE END LIST*
D10*
D11*
X131064000Y-99884000D03*
D12*
X129064000Y-99884000D03*
X127064000Y-99884000D03*
X125064000Y-99884000D03*
X123064000Y-99884000D03*
X121064000Y-99884000D03*
X119064000Y-99884000D03*
X117064000Y-99884000D03*
X117064000Y-115284000D03*
X119064000Y-115184000D03*
X121064000Y-115284000D03*
X123064000Y-115284000D03*
X125064000Y-115284000D03*
X127064000Y-115284000D03*
X129064000Y-115284000D03*
X131064000Y-115284000D03*
D13*
X129540000Y-121920000D03*
D14*
X129540000Y-124460000D03*
X129540000Y-127000000D03*
X129540000Y-129540000D03*
X129540000Y-132080000D03*
D15*
X95250000Y-153035000D03*
X95250000Y-155575000D03*
X93251020Y-155575000D03*
X93251020Y-153035000D03*
D16*
X90551000Y-148305520D03*
X90551000Y-160304480D03*
D15*
X95250000Y-137795000D03*
X95250000Y-140335000D03*
X93251020Y-140335000D03*
X93251020Y-137795000D03*
D16*
X90551000Y-133065520D03*
X90551000Y-145064480D03*
D15*
X95250000Y-122555000D03*
X95250000Y-125095000D03*
X93251020Y-125095000D03*
X93251020Y-122555000D03*
D16*
X90551000Y-117825520D03*
X90551000Y-129824480D03*
D15*
X95250000Y-107315000D03*
X95250000Y-109855000D03*
X93251020Y-109855000D03*
X93251020Y-107315000D03*
D16*
X90551000Y-102585520D03*
X90551000Y-114584480D03*
D15*
X95250000Y-92075000D03*
X95250000Y-94615000D03*
X93251020Y-94615000D03*
X93251020Y-92075000D03*
D16*
X90551000Y-87345520D03*
X90551000Y-99344480D03*
D17*
X87630000Y-165100000D03*
X129222500Y-165100000D03*
X129222500Y-82550000D03*
D13*
X101600000Y-99060000D03*
D14*
X101600000Y-101600000D03*
X101600000Y-104140000D03*
D13*
X101600000Y-109220000D03*
D14*
X101600000Y-111760000D03*
X101600000Y-114300000D03*
D13*
X101600000Y-121920000D03*
D14*
X101600000Y-124460000D03*
X101600000Y-127000000D03*
D13*
X101600000Y-134620000D03*
D14*
X101600000Y-137160000D03*
X101600000Y-139700000D03*
D13*
X101600000Y-144780000D03*
D14*
X101600000Y-147320000D03*
X101600000Y-149860000D03*
D17*
X87630000Y-81915000D03*
D18*
X101600000Y-81280000D03*
D19*
X99060000Y-81280000D03*
X96520000Y-81280000D03*
D20*
X121253000Y-135191500D03*
X117253000Y-135191500D03*
X117253000Y-121666000D03*
X121253000Y-121666000D03*
X117253000Y-126746000D03*
X121253000Y-126746000D03*
X117253000Y-129540000D03*
X121253000Y-129540000D03*
X121253000Y-132334000D03*
X117253000Y-132334000D03*
D21*
X111696500Y-83947000D03*
X111696500Y-81407000D03*
X114236500Y-83947000D03*
X114236500Y-81407000D03*
X116776500Y-83947000D03*
X116776500Y-81407000D03*
X119316500Y-83947000D03*
X119316500Y-81407000D03*
X121856500Y-83947000D03*
X121856500Y-81407000D03*
D18*
X124460000Y-93980000D03*
D19*
X121920000Y-93980000D03*
X119380000Y-93980000D03*
X116840000Y-93980000D03*
X114300000Y-93980000D03*
X111760000Y-93980000D03*
D21*
X121920000Y-163131500D03*
X121920000Y-165671500D03*
X119380000Y-163131500D03*
X119380000Y-165671500D03*
X116840000Y-163131500D03*
X116840000Y-165671500D03*
X114300000Y-163131500D03*
X114300000Y-165671500D03*
X111760000Y-163131500D03*
X111760000Y-165671500D03*
D18*
X124460000Y-152400000D03*
D19*
X121920000Y-152400000D03*
X119380000Y-152400000D03*
X116840000Y-152400000D03*
X114300000Y-152400000D03*
X111760000Y-152400000D03*
D13*
X111760000Y-139700000D03*
D14*
X111760000Y-142240000D03*
X111760000Y-144780000D03*
X111760000Y-147320000D03*
D13*
X111760000Y-127000000D03*
D14*
X111760000Y-129540000D03*
X111760000Y-132080000D03*
X111760000Y-134620000D03*
D13*
X111760000Y-111760000D03*
D14*
X111760000Y-114300000D03*
X111760000Y-116840000D03*
X111760000Y-119380000D03*
D13*
X111760000Y-99060000D03*
D14*
X111760000Y-101600000D03*
X111760000Y-104140000D03*
X111760000Y-106680000D03*
D22*
X106680000Y-99060000D03*
D23*
X107188000Y-81280000D03*
D24*
X119380000Y-148082000D03*
X115506500Y-88074500D03*
X116840000Y-144843500D03*
X121031000Y-104711500D03*
X97853500Y-93154500D03*
X115316000Y-117284500D03*
X124079000Y-132143500D03*
X120142000Y-137731500D03*
D25*
X101600000Y-147320000D02*
X106680000Y-147320000D01*
X106680000Y-147320000D02*
X111760000Y-142240000D01*
X95250000Y-155575000D02*
X95250000Y-154940000D01*
X95250000Y-154940000D02*
X99060000Y-151130000D01*
X99060000Y-151130000D02*
X99060000Y-147320000D01*
X99060000Y-147320000D02*
X101600000Y-144780000D01*
X101600000Y-144780000D02*
X106680000Y-144780000D01*
X100965000Y-144780000D02*
X101600000Y-144780000D01*
X101600000Y-144780000D02*
X101600000Y-144780000D01*
X106680000Y-144780000D02*
X111760000Y-139700000D01*
D26*
X117064000Y-114584000D02*
X117064000Y-121477000D01*
X117064000Y-121477000D02*
X117253000Y-121666000D01*
X116935500Y-114712500D02*
X117064000Y-114584000D01*
D25*
X93251020Y-153035000D02*
X93251020Y-153128980D01*
X93251020Y-153128980D02*
X91440000Y-154940000D01*
X91440000Y-154940000D02*
X91440000Y-156210000D01*
X91440000Y-156210000D02*
X92710000Y-157480000D01*
X92710000Y-157480000D02*
X96520000Y-157480000D01*
X101600000Y-152400000D02*
X101600000Y-149860000D01*
X101600000Y-149860000D02*
X106680000Y-149860000D01*
X106680000Y-149860000D02*
X111760000Y-144780000D01*
X96520000Y-157480000D02*
X101600000Y-152400000D01*
D26*
X96012000Y-164084000D02*
X96075500Y-164084000D01*
X96075500Y-164084000D02*
X101663500Y-158496000D01*
X101663500Y-158496000D02*
X111125000Y-158496000D01*
X111125000Y-158496000D02*
X114300000Y-155321000D01*
X114300000Y-155321000D02*
X114300000Y-152400000D01*
X96012000Y-164084000D02*
X90932000Y-164084000D01*
X90932000Y-164084000D02*
X85852000Y-159004000D01*
X85852000Y-159004000D02*
X85852000Y-88392000D01*
X85852000Y-88392000D02*
X90424000Y-83820000D01*
X100584000Y-83820000D02*
X90424000Y-83820000D01*
X99060000Y-81280000D02*
X99060000Y-82296000D01*
X99060000Y-82296000D02*
X100584000Y-83820000D01*
X100584000Y-83820000D02*
X111760000Y-83820000D01*
X117253000Y-137541000D02*
X117253000Y-135191500D01*
X117253000Y-132334000D02*
X117253000Y-129540000D01*
X117253000Y-137890500D02*
X117253000Y-137541000D01*
X117253000Y-137541000D02*
X117253000Y-132334000D01*
X128016000Y-148653500D02*
X117253000Y-137890500D01*
X128016000Y-154813000D02*
X128016000Y-148653500D01*
X125666500Y-157162500D02*
X128016000Y-154813000D01*
X125666500Y-163957000D02*
X125666500Y-157162500D01*
X101600000Y-81280000D02*
X107188000Y-81280000D01*
X107188000Y-81280000D02*
X111760000Y-81280000D01*
X117253000Y-129540000D02*
X117253000Y-126746000D01*
X121920000Y-165671500D02*
X123952000Y-165671500D01*
X123952000Y-165671500D02*
X125666500Y-163957000D01*
D25*
X120015000Y-103124000D02*
X117919500Y-105219500D01*
X123190000Y-103124000D02*
X120015000Y-103124000D01*
X123190000Y-100710000D02*
X123190000Y-103124000D01*
X114046000Y-109093000D02*
X117919500Y-105219500D01*
X115570000Y-148082000D02*
X119380000Y-148082000D01*
X114046000Y-146558000D02*
X115570000Y-148082000D01*
X114046000Y-112268000D02*
X114046000Y-146558000D01*
X114046000Y-112268000D02*
X114046000Y-109093000D01*
X123190000Y-100710000D02*
X123064000Y-100584000D01*
X119380000Y-93980000D02*
X119380000Y-94424500D01*
X119380000Y-94424500D02*
X123064000Y-98108500D01*
X123064000Y-98108500D02*
X123064000Y-100584000D01*
X114236500Y-83947000D02*
X114236500Y-86804500D01*
X114236500Y-86804500D02*
X115506500Y-88074500D01*
X119380000Y-152400000D02*
X119380000Y-163131500D01*
X116840000Y-144843500D02*
X116840000Y-142684500D01*
X114681000Y-140525500D02*
X114681000Y-112966500D01*
X116840000Y-142684500D02*
X114681000Y-140525500D01*
X114681000Y-112966500D02*
X114681000Y-111061500D01*
X114681000Y-111061500D02*
X121031000Y-104711500D01*
X114681000Y-112903000D02*
X114681000Y-112966500D01*
X116776500Y-83947000D02*
X116776500Y-93916500D01*
X116776500Y-93916500D02*
X116840000Y-93980000D01*
X116840000Y-93980000D02*
X116840000Y-94678500D01*
X116840000Y-94678500D02*
X119761000Y-97599500D01*
X119761000Y-97599500D02*
X120332500Y-97599500D01*
X120332500Y-97599500D02*
X121064000Y-98331000D01*
X121064000Y-98331000D02*
X121064000Y-100584000D01*
X116840000Y-152400000D02*
X116840000Y-163131500D01*
X101600000Y-127000000D02*
X111760000Y-127000000D01*
X91440000Y-123952000D02*
X91440000Y-125920500D01*
X92837000Y-122555000D02*
X91440000Y-123952000D01*
X92519500Y-127000000D02*
X101600000Y-127000000D01*
X91440000Y-125920500D02*
X92519500Y-127000000D01*
X93251020Y-122555000D02*
X92837000Y-122555000D01*
X106680000Y-139700000D02*
X111760000Y-134620000D01*
X93251020Y-137795000D02*
X92710000Y-137795000D01*
X92710000Y-137795000D02*
X91440000Y-139065000D01*
X91440000Y-139065000D02*
X91440000Y-141033500D01*
X91440000Y-141033500D02*
X92646500Y-142240000D01*
X92646500Y-142240000D02*
X99060000Y-142240000D01*
X99060000Y-142240000D02*
X101600000Y-139700000D01*
X101600000Y-139700000D02*
X106680000Y-139700000D01*
X106680000Y-137160000D02*
X111760000Y-132080000D01*
X101600000Y-137160000D02*
X106680000Y-137160000D01*
X101600000Y-111760000D02*
X111760000Y-111760000D01*
X95250000Y-107315000D02*
X97409000Y-107315000D01*
X99568000Y-111760000D02*
X101600000Y-111760000D01*
X98806000Y-110998000D02*
X99568000Y-111760000D01*
X98806000Y-108712000D02*
X98806000Y-110998000D01*
X97409000Y-107315000D02*
X98806000Y-108712000D01*
X95250000Y-107315000D02*
X95631000Y-107315000D01*
X101600000Y-121920000D02*
X103886000Y-121920000D01*
X108966000Y-116840000D02*
X111760000Y-116840000D01*
X103886000Y-121920000D02*
X108966000Y-116840000D01*
X95250000Y-125095000D02*
X98425000Y-125095000D01*
X98425000Y-125095000D02*
X101600000Y-121920000D01*
X101600000Y-114300000D02*
X111760000Y-114300000D01*
X93251020Y-107315000D02*
X92837000Y-107315000D01*
X92837000Y-107315000D02*
X91440000Y-108712000D01*
X94742000Y-114300000D02*
X101600000Y-114300000D01*
X91440000Y-110998000D02*
X94742000Y-114300000D01*
X91440000Y-108712000D02*
X91440000Y-110998000D01*
X93251020Y-107315000D02*
X93251020Y-106773980D01*
X106680000Y-124460000D02*
X111760000Y-119380000D01*
X101600000Y-124460000D02*
X106680000Y-124460000D01*
X95250000Y-140335000D02*
X95885000Y-140335000D01*
X95885000Y-140335000D02*
X101600000Y-134620000D01*
X101600000Y-134620000D02*
X106680000Y-134620000D01*
X106680000Y-134620000D02*
X111760000Y-129540000D01*
X104140000Y-106680000D02*
X111760000Y-106680000D01*
X111125000Y-106680000D02*
X111760000Y-106680000D01*
X100965000Y-109855000D02*
X104140000Y-106680000D01*
X96774000Y-92075000D02*
X97853500Y-93154500D01*
X112395000Y-101282500D02*
X111823500Y-101282500D01*
X110363000Y-101600000D02*
X111760000Y-101600000D01*
X108902500Y-103060500D02*
X110363000Y-101600000D01*
X104330500Y-103060500D02*
X108902500Y-103060500D01*
X101600000Y-101600000D02*
X102870000Y-101600000D01*
X102870000Y-101600000D02*
X104330500Y-103060500D01*
X95250000Y-92075000D02*
X96774000Y-92075000D01*
X95250000Y-92075000D02*
X95885000Y-92075000D01*
X110680500Y-99060000D02*
X111760000Y-99060000D01*
X108267500Y-101473000D02*
X110680500Y-99060000D01*
X101600000Y-99060000D02*
X102616000Y-99060000D01*
X102616000Y-99060000D02*
X105029000Y-101473000D01*
X105029000Y-101473000D02*
X108267500Y-101473000D01*
X95250000Y-94615000D02*
X97155000Y-94615000D01*
X97155000Y-94615000D02*
X101600000Y-99060000D01*
X101600000Y-104140000D02*
X111760000Y-104140000D01*
X93251020Y-92075000D02*
X92837000Y-92075000D01*
X92837000Y-92075000D02*
X91440000Y-93472000D01*
X98806000Y-104140000D02*
X101600000Y-104140000D01*
X91440000Y-96774000D02*
X98806000Y-104140000D01*
X91440000Y-93472000D02*
X91440000Y-96774000D01*
X93251020Y-92075000D02*
X93251020Y-91533980D01*
X129540000Y-121920000D02*
X129540000Y-120904000D01*
X131064000Y-119380000D02*
X131064000Y-114584000D01*
X129540000Y-120904000D02*
X131064000Y-119380000D01*
X129540000Y-124460000D02*
X128016000Y-124460000D01*
X129064000Y-118840000D02*
X129064000Y-114584000D01*
X127508000Y-120396000D02*
X129064000Y-118840000D01*
X127508000Y-123952000D02*
X127508000Y-120396000D01*
X128016000Y-124460000D02*
X127508000Y-123952000D01*
X123064000Y-114584000D02*
X123064000Y-116587000D01*
X125222000Y-129476500D02*
X125158500Y-129540000D01*
X125222000Y-118745000D02*
X125222000Y-129476500D01*
X123064000Y-116587000D02*
X125222000Y-118745000D01*
X123126500Y-114646500D02*
X123064000Y-114584000D01*
X121253000Y-129540000D02*
X123126500Y-129540000D01*
X123126500Y-129540000D02*
X125158500Y-129540000D01*
X125158500Y-129540000D02*
X129540000Y-129540000D01*
X129540000Y-129540000D02*
X128524000Y-129540000D01*
X124079000Y-132143500D02*
X121443500Y-132143500D01*
X121443500Y-132143500D02*
X121253000Y-132334000D01*
X124079000Y-132143500D02*
X129476500Y-132143500D01*
X129476500Y-132143500D02*
X129540000Y-132080000D01*
X129540000Y-132080000D02*
X129540000Y-131572000D01*
X123190000Y-108458000D02*
X131064000Y-100584000D01*
X115316000Y-117094000D02*
X115316000Y-113792000D01*
X115316000Y-113792000D02*
X120650000Y-108458000D01*
X120650000Y-108458000D02*
X123190000Y-108458000D01*
X115316000Y-117348000D02*
X115316000Y-117284500D01*
X115316000Y-117284500D02*
X115316000Y-117094000D01*
X121253000Y-136620500D02*
X121253000Y-135191500D01*
X120142000Y-137731500D02*
X121253000Y-136620500D01*
X119064000Y-114584000D02*
X119064000Y-119477000D01*
X119064000Y-119477000D02*
X121253000Y-121666000D01*
X121064000Y-114584000D02*
X121064000Y-116619000D01*
X123698000Y-124301000D02*
X121253000Y-126746000D01*
X123698000Y-119253000D02*
X123698000Y-124301000D01*
X121064000Y-116619000D02*
X123698000Y-119253000D01*
M02*
