M48
METRIC,TZ
T1C0.400
T2C0.650
T3C0.813
T4C1.016
T5C2.301
T6C3.048
%
G90
G05
T1
X97.853Y-93.154
X107.188Y-81.28
X115.316Y-117.284
X115.506Y-88.075
X116.84Y-144.844
X119.38Y-148.082
X120.142Y-137.731
X121.031Y-104.712
X124.079Y-132.143
T2
X117.064Y-100.584
X117.064Y-114.584
X119.064Y-100.584
X119.064Y-114.584
X121.064Y-100.584
X121.064Y-114.584
X123.064Y-100.584
X123.064Y-114.584
X125.064Y-100.584
X125.064Y-114.584
X127.064Y-100.584
X127.064Y-114.584
X129.064Y-100.584
X129.064Y-114.584
X131.064Y-100.584
X131.064Y-114.584
T3
X93.251Y-92.075
X93.251Y-94.615
X93.251Y-107.315
X93.251Y-109.855
X93.251Y-122.555
X93.251Y-125.095
X93.251Y-137.795
X93.251Y-140.335
X93.251Y-153.035
X93.251Y-155.575
X95.25Y-92.075
X95.25Y-94.615
X95.25Y-107.315
X95.25Y-109.855
X95.25Y-122.555
X95.25Y-125.095
X95.25Y-137.795
X95.25Y-140.335
X95.25Y-153.035
X95.25Y-155.575
T4
X96.52Y-81.28
X99.06Y-81.28
X101.6Y-81.28
X101.6Y-99.06
X101.6Y-101.6
X101.6Y-104.14
X101.6Y-109.22
X101.6Y-111.76
X101.6Y-114.3
X101.6Y-121.92
X101.6Y-124.46
X101.6Y-127.
X101.6Y-134.62
X101.6Y-137.16
X101.6Y-139.7
X101.6Y-144.78
X101.6Y-147.32
X101.6Y-149.86
X106.68Y-99.06
X111.697Y-81.407
X111.697Y-83.947
X111.76Y-93.98
X111.76Y-99.06
X111.76Y-101.6
X111.76Y-104.14
X111.76Y-106.68
X111.76Y-111.76
X111.76Y-114.3
X111.76Y-116.84
X111.76Y-119.38
X111.76Y-127.
X111.76Y-129.54
X111.76Y-132.08
X111.76Y-134.62
X111.76Y-139.7
X111.76Y-142.24
X111.76Y-144.78
X111.76Y-147.32
X111.76Y-152.4
X111.76Y-163.131
X111.76Y-165.671
X114.236Y-81.407
X114.236Y-83.947
X114.3Y-93.98
X114.3Y-152.4
X114.3Y-163.131
X114.3Y-165.671
X116.776Y-81.407
X116.776Y-83.947
X116.84Y-93.98
X116.84Y-152.4
X116.84Y-163.131
X116.84Y-165.671
X119.316Y-81.407
X119.316Y-83.947
X119.38Y-93.98
X119.38Y-152.4
X119.38Y-163.131
X119.38Y-165.671
X121.856Y-81.407
X121.856Y-83.947
X121.92Y-93.98
X121.92Y-152.4
X121.92Y-163.131
X121.92Y-165.671
X124.46Y-93.98
X124.46Y-152.4
X129.54Y-121.92
X129.54Y-124.46
X129.54Y-127.
X129.54Y-129.54
X129.54Y-132.08
T5
X90.551Y-87.346
X90.551Y-99.344
X90.551Y-102.586
X90.551Y-114.584
X90.551Y-117.826
X90.551Y-129.824
X90.551Y-133.066
X90.551Y-145.064
X90.551Y-148.306
X90.551Y-160.304
T6
X87.63Y-81.915
X87.63Y-165.1
X129.222Y-82.55
X129.222Y-165.1
T0
M30
