%TF.GenerationSoftware,KiCad,Pcbnew,4.0.1-stable*%
%TF.CreationDate,2016-01-20T20:58:58+01:00*%
%TF.ProjectId,main_board,6D61696E5F626F6172642E6B69636164,rev?*%
%TF.FileFunction,Soldermask,Bot*%
%FSLAX46Y46*%
G04 Gerber Fmt 4.6, Leading zero omitted, Abs format (unit mm)*
G04 Created by KiCad (PCBNEW 4.0.1-stable) date Wed 20 Jan 2016 08:58:58 PM CET*
%MOMM*%
G01*
G04 APERTURE LIST*
%ADD10C,0.100000*%
%ADD11R,1.500000X2.900000*%
%ADD12O,1.500000X2.900000*%
%ADD13R,2.432000X2.127200*%
%ADD14O,2.432000X2.127200*%
%ADD15C,1.924000*%
%ADD16C,3.100020*%
%ADD17C,4.464000*%
%ADD18R,2.127200X2.432000*%
%ADD19O,2.127200X2.432000*%
%ADD20R,2.635200X2.635200*%
G04 APERTURE END LIST*
D10*
D11*
X131064000Y-99884000D03*
D12*
X129064000Y-99884000D03*
X127064000Y-99884000D03*
X125064000Y-99884000D03*
X123064000Y-99884000D03*
X121064000Y-99884000D03*
X119064000Y-99884000D03*
X117064000Y-99884000D03*
X117064000Y-115284000D03*
X119064000Y-115184000D03*
X121064000Y-115284000D03*
X123064000Y-115284000D03*
X125064000Y-115284000D03*
X127064000Y-115284000D03*
X129064000Y-115284000D03*
X131064000Y-115284000D03*
D13*
X129540000Y-121920000D03*
D14*
X129540000Y-124460000D03*
X129540000Y-127000000D03*
X129540000Y-129540000D03*
X129540000Y-132080000D03*
D15*
X95250000Y-153035000D03*
X95250000Y-155575000D03*
X93251020Y-155575000D03*
X93251020Y-153035000D03*
D16*
X90551000Y-148305520D03*
X90551000Y-160304480D03*
D15*
X95250000Y-137795000D03*
X95250000Y-140335000D03*
X93251020Y-140335000D03*
X93251020Y-137795000D03*
D16*
X90551000Y-133065520D03*
X90551000Y-145064480D03*
D15*
X95250000Y-122555000D03*
X95250000Y-125095000D03*
X93251020Y-125095000D03*
X93251020Y-122555000D03*
D16*
X90551000Y-117825520D03*
X90551000Y-129824480D03*
D15*
X95250000Y-107315000D03*
X95250000Y-109855000D03*
X93251020Y-109855000D03*
X93251020Y-107315000D03*
D16*
X90551000Y-102585520D03*
X90551000Y-114584480D03*
D15*
X95250000Y-92075000D03*
X95250000Y-94615000D03*
X93251020Y-94615000D03*
X93251020Y-92075000D03*
D16*
X90551000Y-87345520D03*
X90551000Y-99344480D03*
D17*
X87630000Y-165100000D03*
X129222500Y-165100000D03*
X129222500Y-82550000D03*
D13*
X101600000Y-99060000D03*
D14*
X101600000Y-101600000D03*
X101600000Y-104140000D03*
D13*
X101600000Y-109220000D03*
D14*
X101600000Y-111760000D03*
X101600000Y-114300000D03*
D13*
X101600000Y-121920000D03*
D14*
X101600000Y-124460000D03*
X101600000Y-127000000D03*
D13*
X101600000Y-134620000D03*
D14*
X101600000Y-137160000D03*
X101600000Y-139700000D03*
D13*
X101600000Y-144780000D03*
D14*
X101600000Y-147320000D03*
X101600000Y-149860000D03*
D17*
X87630000Y-81915000D03*
D18*
X101600000Y-81280000D03*
D19*
X99060000Y-81280000D03*
X96520000Y-81280000D03*
D18*
X124460000Y-93980000D03*
D19*
X121920000Y-93980000D03*
X119380000Y-93980000D03*
X116840000Y-93980000D03*
X114300000Y-93980000D03*
X111760000Y-93980000D03*
D18*
X124460000Y-152400000D03*
D19*
X121920000Y-152400000D03*
X119380000Y-152400000D03*
X116840000Y-152400000D03*
X114300000Y-152400000D03*
X111760000Y-152400000D03*
D13*
X111760000Y-139700000D03*
D14*
X111760000Y-142240000D03*
X111760000Y-144780000D03*
X111760000Y-147320000D03*
D13*
X111760000Y-127000000D03*
D14*
X111760000Y-129540000D03*
X111760000Y-132080000D03*
X111760000Y-134620000D03*
D13*
X111760000Y-111760000D03*
D14*
X111760000Y-114300000D03*
X111760000Y-116840000D03*
X111760000Y-119380000D03*
D13*
X111760000Y-99060000D03*
D14*
X111760000Y-101600000D03*
X111760000Y-104140000D03*
X111760000Y-106680000D03*
D20*
X106680000Y-99060000D03*
M02*
